# xmcd
#
# Track frame offsets: 
#        150
#        13335
#        29210
#        44294
#        55900
#        71576
#        85665
#        96985
#        109722
#        119736
#        128188
#        141497
#        151460
#        164837
#        175671
#        193079
#        203398
#        215310
#        225584
#        233977
#        242147
#        255438
#        266022
#        277869
#        289634
#        299583
#        313113
#        323532
#        333516
#        344390
#
# Disc length: 4730 seconds
#
# Revision: 1
# Processed by: cddbd v1.4PL0 Copyright (c) Steve Scherf et al.
# Submitted via: ExactAudioCopy v0.90b4
#
DISCID=cd12781e
DTITLE=Waylon Jennings - The Journey - Six Strings Away - Vol. 2
DYEAR=1999
DGENRE=Country
TTITLE0=Don't Play The Game (1970)
TTITLE1=The House Song (1971)
TTITLE2=Delia's Gone (1969)
TTITLE3=It's All Over Now (1971)
TTITLE4=The Thirty Third Of August (1970)
TTITLE5=I'm Gonna Leave (While I Still Love You) (1971)
TTITLE6=Grey Eyes You Know (1971)
TTITLE7=I May Never Pass This Way Again (1970)
TTITLE8=(I'd Be) A Legend In My Time (1985)
TTITLE9=Lila (1970)
TTITLE10=Willie And Laura Mae Jones (1972)
TTITLE11=I Ain't The One (& Jessi Colter) (1970)
TTITLE12=Singer Of Sad Songs (1970)
TTITLE13=Let Me Stay Awhile (1971)
TTITLE14=Sunday Mornin' Comin' Down (1971)
TTITLE15=(I'd Be) A Legend In My Time (1971)
TTITLE16=It's Sure Been Fun (1985)
TTITLE17=Where Love Has Died (1970)
TTITLE18=Yellow Haired Woman (1970)
TTITLE19=This Time Tomorrow (I'll Be Gone) (1970)
TTITLE20=Life Goes On (1971)
TTITLE21=People In Dallas Got Hair (1999)
TTITLE22=Six White Horses (1971)
TTITLE23=Pickin' White Gold (1971)
TTITLE24=Donna On My Mind (1970)
TTITLE25=Honky Tonk Woman (1970)
TTITLE26=Time Between Bottles Of Wine (1970)
TTITLE27=Ragged But Right (1970)
TTITLE28=If I Were A Carpenter (1970)
TTITLE29=Must You Throw Dirt In My Face (1970)
EXTD=
EXTT0=
EXTT1=
EXTT2=
EXTT3=
EXTT4=
EXTT5=
EXTT6=
EXTT7=
EXTT8=
EXTT9=
EXTT10=
EXTT11=
EXTT12=
EXTT13=
EXTT14=
EXTT15=
EXTT16=
EXTT17=
EXTT18=
EXTT19=
EXTT20=
EXTT21=
EXTT22=
EXTT23=
EXTT24=
EXTT25=
EXTT26=
EXTT27=
EXTT28=
EXTT29=
PLAYORDER=
